# xmcd
#
# Track frame offsets:
#	150
#	15937
#	32705
#	53717
#	57762
#	82797
#	109002
#	126617
#	146637
#
# Disc length: 2220 seconds
#
# Revision: 0
# Processed by: cddbd v1.5.2PL0 Copyright (c) Steve Scherf et al.
# Submitted via: audiograbber 1.83.01
#
DISCID=6d08aa09
DTITLE=Alice Cooper - The Studio Albums 1969-1983 [CD 05) - School's Out
DYEAR=1972
DGENRE=Rock
TTITLE0=School's Out
TTITLE1=Luney Tune
TTITLE2=Gutter Cat Vs. The Jets
TTITLE3=Street Fight
TTITLE4=Blue Turk
TTITLE5=My Stars
TTITLE6=Public Animal #9
TTITLE7=Alma Mater
TTITLE8=Grande Finale
EXTD=
EXTT0=
EXTT1=
EXTT2=
EXTT3=
EXTT4=
EXTT5=
EXTT6=
EXTT7=
EXTT8=
PLAYORDER=
